# Blender v2.79 (sub 0) OBJ File: 'cube_texture.blend'
# www.blender.org
mtllib woodbox.mtl
o Cube_Cube.001
v -1.000000 -1.000000 -1.000000
v -1.000000 -1.000000 1.000000
v -1.000000 1.000000 -1.000000
v -1.000000 1.000000 1.000000
v 1.000000 -1.000000 -1.000000
v 1.000000 -1.000000 1.000000
v 1.000000 1.000000 -1.000000
v 1.000000 1.000000 1.000000
vt 0.486789 0.349469
vt 0.486789 0.095713
vt 0.689470 0.095713
vt 0.689470 0.349469
vt 0.892150 0.349469
vt 0.892150 0.603225
vt 0.689470 0.603225
vt 0.689470 0.856980
vt 0.486789 0.856980
vt 0.486789 0.603225
vt 0.284109 0.603225
vt 0.284109 0.349469
vt 0.081429 0.603225
vt 0.081429 0.349469
vn -1.0000 0.0000 0.0000
vn 0.0000 1.0000 0.0000
vn 1.0000 0.0000 0.0000
vn 0.0000 -1.0000 0.0000
vn 0.0000 0.0000 -1.0000
vn 0.0000 0.0000 1.0000
usemtl None
s off
f 1/1/1 2/2/1 4/3/1 3/4/1
f 3/4/2 4/5/2 8/6/2 7/7/2
f 7/7/3 8/8/3 6/9/3 5/10/3
f 5/10/4 6/11/4 2/12/4 1/1/4
f 3/4/5 7/7/5 5/10/5 1/1/5
f 8/13/6 4/14/6 2/12/6 6/11/6
